STARTFONT 2.1
FONT -Fondu-Palatino-Medium-R-Normal--12-120-75-75-P-68-MacRoman-1
SIZE 12 75 75
FONTBOUNDINGBOX 17 14 -2 -4
COMMENT Created by Fondu from a mac NFNT/FONT resource
STARTPROPERTIES 17
FOUNDRY "Fondu"
FAMILY_NAME "Palatino"
WEIGHT_NAME "Medium"
SLANT "R"
SETWIDTH_NAME "Normal"
ADD_STYLE_NAME ""
PIXEL_SIZE 12
POINT_SIZE 120
RESOLUTION_X 75
RESOLUTION_Y 75
SPACING "P"
AVERAGE_WIDTH 68
CHARSET_REGISTRY "MacRoman"
CHARSET_ENCODING "1"
FONT_ASCENT 10
FONT_DESCENT 4
FACE_NAME "Palatino"
ENDPROPERTIES
CHARS 223
STARTCHAR space
ENCODING 32
SWIDTH 250 0
DWIDTH 3 0
BBX 1 0 0 -4
BITMAP
ENDCHAR
STARTCHAR exclam
ENCODING 33
SWIDTH 278 0
DWIDTH 4 0
BBX 1 9 1 0
BITMAP
80
80
80
80
80
80
00
80
80
ENDCHAR
STARTCHAR quotedbl
ENCODING 34
SWIDTH 371 0
DWIDTH 6 0
BBX 3 3 1 6
BITMAP
A0
A0
A0
ENDCHAR
STARTCHAR numbersign
ENCODING 35
SWIDTH 606 0
DWIDTH 8 0
BBX 7 8 0 0
BITMAP
14
14
7E
28
28
FC
50
50
ENDCHAR
STARTCHAR dollar
ENCODING 36
SWIDTH 500 0
DWIDTH 6 0
BBX 5 11 0 -1
BITMAP
20
78
A8
A0
60
30
28
28
A8
F0
20
ENDCHAR
STARTCHAR percent
ENCODING 37
SWIDTH 840 0
DWIDTH 11 0
BBX 10 10 0 -1
BITMAP
6600
9A00
9400
9400
6980
0A40
1240
1240
2180
2000
ENDCHAR
STARTCHAR ampersand
ENCODING 38
SWIDTH 778 0
DWIDTH 10 0
BBX 9 9 0 0
BITMAP
3800
4800
5000
2000
6780
9200
8C00
8400
7B00
ENDCHAR
STARTCHAR quotesingle
ENCODING 39
SWIDTH 208 0
DWIDTH 4 0
BBX 1 3 1 6
BITMAP
80
80
80
ENDCHAR
STARTCHAR parenleft
ENCODING 40
SWIDTH 333 0
DWIDTH 4 0
BBX 3 11 0 -2
BITMAP
20
40
40
80
80
80
80
80
40
40
20
ENDCHAR
STARTCHAR parenright
ENCODING 41
SWIDTH 333 0
DWIDTH 4 0
BBX 3 11 0 -2
BITMAP
80
40
40
20
20
20
20
20
40
40
80
ENDCHAR
STARTCHAR asterisk
ENCODING 42
SWIDTH 389 0
DWIDTH 6 0
BBX 5 5 0 4
BITMAP
20
A0
58
A0
20
ENDCHAR
STARTCHAR plus
ENCODING 43
SWIDTH 606 0
DWIDTH 8 0
BBX 7 7 0 0
BITMAP
10
10
10
FE
10
10
10
ENDCHAR
STARTCHAR comma
ENCODING 44
SWIDTH 250 0
DWIDTH 3 0
BBX 2 3 0 -1
BITMAP
40
40
80
ENDCHAR
STARTCHAR hyphen
ENCODING 45
SWIDTH 333 0
DWIDTH 4 0
BBX 3 1 0 3
BITMAP
E0
ENDCHAR
STARTCHAR period
ENCODING 46
SWIDTH 250 0
DWIDTH 3 0
BBX 1 2 1 0
BITMAP
80
80
ENDCHAR
STARTCHAR slash
ENCODING 47
SWIDTH 606 0
DWIDTH 6 0
BBX 5 10 0 -1
BITMAP
08
08
10
10
20
20
40
40
80
80
ENDCHAR
STARTCHAR zero
ENCODING 48
SWIDTH 500 0
DWIDTH 6 0
BBX 5 9 0 0
BITMAP
70
88
88
88
88
88
88
88
70
ENDCHAR
STARTCHAR one
ENCODING 49
SWIDTH 500 0
DWIDTH 6 0
BBX 4 9 0 0
BITMAP
20
60
A0
20
20
20
20
20
70
ENDCHAR
STARTCHAR two
ENCODING 50
SWIDTH 500 0
DWIDTH 6 0
BBX 5 9 0 0
BITMAP
70
88
08
08
10
20
40
80
F8
ENDCHAR
STARTCHAR three
ENCODING 51
SWIDTH 500 0
DWIDTH 6 0
BBX 5 9 0 0
BITMAP
70
88
08
10
38
08
08
88
70
ENDCHAR
STARTCHAR four
ENCODING 52
SWIDTH 500 0
DWIDTH 6 0
BBX 5 9 0 0
BITMAP
30
30
50
50
90
90
F8
10
38
ENDCHAR
STARTCHAR five
ENCODING 53
SWIDTH 500 0
DWIDTH 6 0
BBX 5 9 0 0
BITMAP
F8
80
80
F0
98
08
08
88
70
ENDCHAR
STARTCHAR six
ENCODING 54
SWIDTH 500 0
DWIDTH 6 0
BBX 5 9 0 0
BITMAP
20
40
40
B0
D8
88
88
88
70
ENDCHAR
STARTCHAR seven
ENCODING 55
SWIDTH 500 0
DWIDTH 6 0
BBX 5 9 0 0
BITMAP
F8
88
10
10
20
20
40
40
40
ENDCHAR
STARTCHAR eight
ENCODING 56
SWIDTH 500 0
DWIDTH 6 0
BBX 5 9 0 0
BITMAP
70
88
88
50
70
98
88
88
70
ENDCHAR
STARTCHAR nine
ENCODING 57
SWIDTH 500 0
DWIDTH 6 0
BBX 5 9 0 0
BITMAP
70
88
88
88
D8
68
10
10
20
ENDCHAR
STARTCHAR colon
ENCODING 58
SWIDTH 250 0
DWIDTH 3 0
BBX 1 6 1 0
BITMAP
80
80
00
00
80
80
ENDCHAR
STARTCHAR semicolon
ENCODING 59
SWIDTH 250 0
DWIDTH 3 0
BBX 2 7 0 -1
BITMAP
40
40
00
00
40
40
80
ENDCHAR
STARTCHAR less
ENCODING 60
SWIDTH 606 0
DWIDTH 8 0
BBX 6 5 0 1
BITMAP
0C
30
C0
30
0C
ENDCHAR
STARTCHAR equal
ENCODING 61
SWIDTH 606 0
DWIDTH 7 0
BBX 6 3 0 2
BITMAP
FC
00
FC
ENDCHAR
STARTCHAR greater
ENCODING 62
SWIDTH 606 0
DWIDTH 7 0
BBX 6 5 0 1
BITMAP
C0
30
0C
30
C0
ENDCHAR
STARTCHAR question
ENCODING 63
SWIDTH 444 0
DWIDTH 6 0
BBX 5 9 0 0
BITMAP
70
88
08
10
20
20
00
20
20
ENDCHAR
STARTCHAR at
ENCODING 64
SWIDTH 747 0
DWIDTH 11 0
BBX 10 9 0 0
BITMAP
1F00
2080
4E40
9240
A440
A480
9B00
4000
3C00
ENDCHAR
STARTCHAR A
ENCODING 65
SWIDTH 778 0
DWIDTH 10 0
BBX 9 9 0 0
BITMAP
0800
0800
1400
1400
2200
3E00
4100
4100
E380
ENDCHAR
STARTCHAR B
ENCODING 66
SWIDTH 611 0
DWIDTH 8 0
BBX 7 9 0 0
BITMAP
F8
44
44
48
7C
42
42
46
FC
ENDCHAR
STARTCHAR C
ENCODING 67
SWIDTH 709 0
DWIDTH 8 0
BBX 7 9 0 0
BITMAP
3E
42
80
80
80
80
80
C2
7C
ENDCHAR
STARTCHAR D
ENCODING 68
SWIDTH 774 0
DWIDTH 9 0
BBX 8 9 0 0
BITMAP
FE
43
41
41
41
41
41
42
FC
ENDCHAR
STARTCHAR E
ENCODING 69
SWIDTH 611 0
DWIDTH 7 0
BBX 6 9 0 0
BITMAP
FC
44
40
48
78
48
40
44
FC
ENDCHAR
STARTCHAR F
ENCODING 70
SWIDTH 556 0
DWIDTH 7 0
BBX 6 9 0 0
BITMAP
FC
44
40
48
78
48
40
40
E0
ENDCHAR
STARTCHAR G
ENCODING 71
SWIDTH 763 0
DWIDTH 9 0
BBX 8 9 0 0
BITMAP
3E
42
80
80
80
87
82
C2
7C
ENDCHAR
STARTCHAR H
ENCODING 72
SWIDTH 832 0
DWIDTH 10 0
BBX 9 9 0 0
BITMAP
E380
4100
4100
4100
7F00
4100
4100
4100
E380
ENDCHAR
STARTCHAR I
ENCODING 73
SWIDTH 337 0
DWIDTH 4 0
BBX 3 9 0 0
BITMAP
E0
40
40
40
40
40
40
40
E0
ENDCHAR
STARTCHAR J
ENCODING 74
SWIDTH 333 0
DWIDTH 4 0
BBX 3 12 0 -3
BITMAP
E0
40
40
40
40
40
40
40
40
40
40
80
ENDCHAR
STARTCHAR K
ENCODING 75
SWIDTH 726 0
DWIDTH 9 0
BBX 8 9 0 0
BITMAP
E6
44
48
50
70
58
4C
46
E3
ENDCHAR
STARTCHAR L
ENCODING 76
SWIDTH 611 0
DWIDTH 7 0
BBX 6 9 0 0
BITMAP
E0
40
40
40
40
40
40
44
FC
ENDCHAR
STARTCHAR M
ENCODING 77
SWIDTH 946 0
DWIDTH 12 0
BBX 11 9 0 0
BITMAP
C060
60C0
60C0
5140
5140
4A40
4A40
4440
E4E0
ENDCHAR
STARTCHAR N
ENCODING 78
SWIDTH 831 0
DWIDTH 11 0
BBX 10 9 0 0
BITMAP
C1C0
6080
7080
5880
4C80
4680
4380
4180
E080
ENDCHAR
STARTCHAR O
ENCODING 79
SWIDTH 786 0
DWIDTH 9 0
BBX 8 9 0 0
BITMAP
3E
43
81
81
81
81
81
C2
7C
ENDCHAR
STARTCHAR P
ENCODING 80
SWIDTH 604 0
DWIDTH 7 0
BBX 6 9 0 0
BITMAP
F8
44
44
44
58
40
40
40
E0
ENDCHAR
STARTCHAR Q
ENCODING 81
SWIDTH 786 0
DWIDTH 9 0
BBX 9 10 0 -1
BITMAP
3E00
4300
8100
8100
8100
8100
8100
C200
3C80
4700
ENDCHAR
STARTCHAR R
ENCODING 82
SWIDTH 668 0
DWIDTH 9 0
BBX 8 9 0 0
BITMAP
F8
44
44
48
78
4C
44
46
E3
ENDCHAR
STARTCHAR S
ENCODING 83
SWIDTH 525 0
DWIDTH 7 0
BBX 6 9 0 0
BITMAP
3C
C4
80
C0
78
04
04
8C
F0
ENDCHAR
STARTCHAR T
ENCODING 84
SWIDTH 613 0
DWIDTH 8 0
BBX 7 9 0 0
BITMAP
FE
92
10
10
10
10
10
10
38
ENDCHAR
STARTCHAR U
ENCODING 85
SWIDTH 778 0
DWIDTH 10 0
BBX 9 9 0 0
BITMAP
E380
4100
4100
4100
4100
4100
4100
6200
3E00
ENDCHAR
STARTCHAR V
ENCODING 86
SWIDTH 722 0
DWIDTH 10 0
BBX 9 9 0 0
BITMAP
E380
4100
6200
2200
2200
3400
1400
1800
0800
ENDCHAR
STARTCHAR W
ENCODING 87
SWIDTH 1000 0
DWIDTH 14 0
BBX 13 9 0 0
BITMAP
E238
4310
4510
6590
28A0
28A0
38E0
1040
1040
ENDCHAR
STARTCHAR X
ENCODING 88
SWIDTH 667 0
DWIDTH 8 0
BBX 7 9 0 0
BITMAP
C6
44
28
38
10
28
28
44
C6
ENDCHAR
STARTCHAR Y
ENCODING 89
SWIDTH 667 0
DWIDTH 8 0
BBX 7 9 0 0
BITMAP
C6
44
44
28
28
10
10
10
38
ENDCHAR
STARTCHAR Z
ENCODING 90
SWIDTH 667 0
DWIDTH 8 0
BBX 7 9 0 0
BITMAP
FE
86
0C
18
30
60
C0
82
FE
ENDCHAR
STARTCHAR bracketleft
ENCODING 91
SWIDTH 333 0
DWIDTH 3 0
BBX 2 11 0 -2
BITMAP
C0
80
80
80
80
80
80
80
80
80
C0
ENDCHAR
STARTCHAR backslash
ENCODING 92
SWIDTH 606 0
DWIDTH 8 0
BBX 5 10 1 -1
BITMAP
80
80
40
40
20
20
10
10
08
08
ENDCHAR
STARTCHAR bracketright
ENCODING 93
SWIDTH 333 0
DWIDTH 3 0
BBX 2 11 0 -2
BITMAP
C0
40
40
40
40
40
40
40
40
40
C0
ENDCHAR
STARTCHAR asciicircum
ENCODING 94
SWIDTH 606 0
DWIDTH 6 0
BBX 5 6 0 3
BITMAP
20
20
50
50
88
88
ENDCHAR
STARTCHAR underscore
ENCODING 95
SWIDTH 500 0
DWIDTH 8 0
BBX 8 1 0 -2
BITMAP
FF
ENDCHAR
STARTCHAR grave
ENCODING 96
SWIDTH 333 0
DWIDTH 4 0
BBX 2 2 1 7
BITMAP
80
40
ENDCHAR
STARTCHAR a
ENCODING 97
SWIDTH 500 0
DWIDTH 6 0
BBX 5 6 0 0
BITMAP
60
90
70
90
90
68
ENDCHAR
STARTCHAR b
ENCODING 98
SWIDTH 553 0
DWIDTH 6 0
BBX 6 9 -1 0
BITMAP
C0
40
40
58
64
44
44
44
78
ENDCHAR
STARTCHAR c
ENCODING 99
SWIDTH 444 0
DWIDTH 5 0
BBX 4 6 0 0
BITMAP
70
90
80
80
C0
70
ENDCHAR
STARTCHAR d
ENCODING 100
SWIDTH 611 0
DWIDTH 7 0
BBX 6 9 0 0
BITMAP
18
08
08
78
88
88
88
98
6C
ENDCHAR
STARTCHAR e
ENCODING 101
SWIDTH 479 0
DWIDTH 6 0
BBX 5 6 0 0
BITMAP
70
88
F8
80
C8
70
ENDCHAR
STARTCHAR f
ENCODING 102
SWIDTH 333 0
DWIDTH 4 0
BBX 4 9 0 0
BITMAP
30
40
40
F0
40
40
40
40
E0
ENDCHAR
STARTCHAR g
ENCODING 103
SWIDTH 556 0
DWIDTH 6 0
BBX 6 10 0 -4
BITMAP
70
8C
88
70
40
78
4C
84
84
78
ENDCHAR
STARTCHAR h
ENCODING 104
SWIDTH 582 0
DWIDTH 8 0
BBX 7 9 0 0
BITMAP
C0
40
40
58
64
44
44
44
EE
ENDCHAR
STARTCHAR i
ENCODING 105
SWIDTH 291 0
DWIDTH 4 0
BBX 3 9 0 0
BITMAP
40
40
00
C0
40
40
40
40
E0
ENDCHAR
STARTCHAR j
ENCODING 106
SWIDTH 234 0
DWIDTH 4 0
BBX 2 13 0 -4
BITMAP
40
40
00
C0
40
40
40
40
40
40
40
40
80
ENDCHAR
STARTCHAR k
ENCODING 107
SWIDTH 556 0
DWIDTH 7 0
BBX 6 9 0 0
BITMAP
C0
40
40
48
50
60
70
58
CC
ENDCHAR
STARTCHAR l
ENCODING 108
SWIDTH 291 0
DWIDTH 4 0
BBX 3 9 0 0
BITMAP
C0
40
40
40
40
40
40
40
E0
ENDCHAR
STARTCHAR m
ENCODING 109
SWIDTH 883 0
DWIDTH 12 0
BBX 11 6 0 0
BITMAP
D980
6640
4440
4440
4440
EEE0
ENDCHAR
STARTCHAR n
ENCODING 110
SWIDTH 582 0
DWIDTH 8 0
BBX 7 6 0 0
BITMAP
D8
64
44
44
44
E6
ENDCHAR
STARTCHAR o
ENCODING 111
SWIDTH 546 0
DWIDTH 7 0
BBX 6 6 0 0
BITMAP
38
CC
84
84
CC
70
ENDCHAR
STARTCHAR p
ENCODING 112
SWIDTH 601 0
DWIDTH 7 0
BBX 6 10 0 -4
BITMAP
D8
64
44
44
44
78
40
40
40
E0
ENDCHAR
STARTCHAR q
ENCODING 113
SWIDTH 560 0
DWIDTH 6 0
BBX 6 10 0 -4
BITMAP
78
88
88
88
98
68
08
08
08
1C
ENDCHAR
STARTCHAR r
ENCODING 114
SWIDTH 395 0
DWIDTH 5 0
BBX 5 6 0 0
BITMAP
D8
60
40
40
40
E0
ENDCHAR
STARTCHAR s
ENCODING 115
SWIDTH 424 0
DWIDTH 5 0
BBX 4 6 0 0
BITMAP
70
90
C0
30
90
E0
ENDCHAR
STARTCHAR t
ENCODING 116
SWIDTH 326 0
DWIDTH 4 0
BBX 3 8 0 0
BITMAP
40
40
E0
40
40
40
40
60
ENDCHAR
STARTCHAR u
ENCODING 117
SWIDTH 603 0
DWIDTH 8 0
BBX 7 6 0 0
BITMAP
CC
44
44
44
4C
36
ENDCHAR
STARTCHAR v
ENCODING 118
SWIDTH 565 0
DWIDTH 8 0
BBX 7 6 0 0
BITMAP
EE
44
44
28
28
10
ENDCHAR
STARTCHAR w
ENCODING 119
SWIDTH 834 0
DWIDTH 10 0
BBX 9 6 0 0
BITMAP
EB80
4900
5500
5500
2200
2200
ENDCHAR
STARTCHAR x
ENCODING 120
SWIDTH 516 0
DWIDTH 6 0
BBX 5 6 0 0
BITMAP
D8
50
20
20
50
D8
ENDCHAR
STARTCHAR y
ENCODING 121
SWIDTH 556 0
DWIDTH 6 0
BBX 7 10 -1 -4
BITMAP
EE
44
24
28
28
18
10
10
20
60
ENDCHAR
STARTCHAR z
ENCODING 122
SWIDTH 500 0
DWIDTH 6 0
BBX 5 6 0 0
BITMAP
F8
90
20
40
88
F8
ENDCHAR
STARTCHAR braceleft
ENCODING 123
SWIDTH 333 0
DWIDTH 4 0
BBX 3 11 0 -2
BITMAP
20
40
40
40
40
80
40
40
40
40
20
ENDCHAR
STARTCHAR bar
ENCODING 124
SWIDTH 606 0
DWIDTH 6 0
BBX 1 9 2 0
BITMAP
80
80
80
80
80
80
80
80
80
ENDCHAR
STARTCHAR braceright
ENCODING 125
SWIDTH 333 0
DWIDTH 4 0
BBX 3 11 0 -2
BITMAP
80
40
40
40
40
20
40
40
40
40
80
ENDCHAR
STARTCHAR asciitilde
ENCODING 126
SWIDTH 606 0
DWIDTH 7 0
BBX 6 2 0 3
BITMAP
64
98
ENDCHAR
STARTCHAR Adieresis
ENCODING 128
SWIDTH 778 0
DWIDTH 10 0
BBX 9 9 0 0
BITMAP
2400
2400
0000
0800
1400
3E00
2200
4100
E380
ENDCHAR
STARTCHAR Aring
ENCODING 129
SWIDTH 778 0
DWIDTH 10 0
BBX 9 9 0 0
BITMAP
0C00
1200
0C00
0800
1400
3E00
2200
4100
E380
ENDCHAR
STARTCHAR Ccedilla
ENCODING 130
SWIDTH 709 0
DWIDTH 8 0
BBX 7 12 0 -3
BITMAP
3E
42
80
80
80
80
80
C2
7C
10
08
18
ENDCHAR
STARTCHAR Eacute
ENCODING 131
SWIDTH 611 0
DWIDTH 7 0
BBX 6 9 0 0
BITMAP
10
20
00
FC
44
70
40
44
FC
ENDCHAR
STARTCHAR Ntilde
ENCODING 132
SWIDTH 831 0
DWIDTH 11 0
BBX 10 9 0 0
BITMAP
1200
2C00
0000
E1C0
7080
5880
4680
4380
E180
ENDCHAR
STARTCHAR Odieresis
ENCODING 133
SWIDTH 786 0
DWIDTH 9 0
BBX 8 9 0 0
BITMAP
24
24
00
3E
43
81
81
C2
7C
ENDCHAR
STARTCHAR Udieresis
ENCODING 134
SWIDTH 778 0
DWIDTH 10 0
BBX 9 9 0 0
BITMAP
2400
2400
0000
E380
4100
4100
4100
6200
3E00
ENDCHAR
STARTCHAR aacute
ENCODING 135
SWIDTH 500 0
DWIDTH 6 0
BBX 5 9 0 0
BITMAP
20
40
00
60
90
70
90
90
68
ENDCHAR
STARTCHAR agrave
ENCODING 136
SWIDTH 500 0
DWIDTH 6 0
BBX 5 9 0 0
BITMAP
40
20
00
60
90
70
90
90
68
ENDCHAR
STARTCHAR acircumflex
ENCODING 137
SWIDTH 500 0
DWIDTH 6 0
BBX 5 9 0 0
BITMAP
20
50
00
60
90
70
90
90
68
ENDCHAR
STARTCHAR adieresis
ENCODING 138
SWIDTH 500 0
DWIDTH 6 0
BBX 5 9 0 0
BITMAP
90
90
00
60
90
70
90
90
68
ENDCHAR
STARTCHAR atilde
ENCODING 139
SWIDTH 500 0
DWIDTH 6 0
BBX 5 9 0 0
BITMAP
48
B0
00
60
90
70
90
90
68
ENDCHAR
STARTCHAR aring
ENCODING 140
SWIDTH 500 0
DWIDTH 6 0
BBX 5 10 0 0
BITMAP
60
90
60
00
60
90
70
90
90
68
ENDCHAR
STARTCHAR ccedilla
ENCODING 141
SWIDTH 444 0
DWIDTH 5 0
BBX 4 9 0 -3
BITMAP
70
90
80
80
C0
70
40
20
60
ENDCHAR
STARTCHAR eacute
ENCODING 142
SWIDTH 479 0
DWIDTH 6 0
BBX 5 9 0 0
BITMAP
20
40
00
70
88
F8
80
C8
70
ENDCHAR
STARTCHAR egrave
ENCODING 143
SWIDTH 479 0
DWIDTH 6 0
BBX 5 9 0 0
BITMAP
40
20
00
70
88
F8
80
C8
70
ENDCHAR
STARTCHAR ecircumflex
ENCODING 144
SWIDTH 479 0
DWIDTH 6 0
BBX 5 9 0 0
BITMAP
20
50
00
70
88
F8
80
C8
70
ENDCHAR
STARTCHAR edieresis
ENCODING 145
SWIDTH 479 0
DWIDTH 6 0
BBX 5 9 0 0
BITMAP
90
90
00
70
88
F8
80
C8
70
ENDCHAR
STARTCHAR iacute
ENCODING 146
SWIDTH 287 0
DWIDTH 4 0
BBX 3 9 0 0
BITMAP
40
80
00
C0
40
40
40
40
E0
ENDCHAR
STARTCHAR igrave
ENCODING 147
SWIDTH 287 0
DWIDTH 4 0
BBX 3 9 0 0
BITMAP
80
40
00
C0
40
40
40
40
E0
ENDCHAR
STARTCHAR icircumflex
ENCODING 148
SWIDTH 287 0
DWIDTH 4 0
BBX 3 9 0 0
BITMAP
40
A0
00
C0
40
40
40
40
E0
ENDCHAR
STARTCHAR idieresis
ENCODING 149
SWIDTH 287 0
DWIDTH 4 0
BBX 4 9 -1 0
BITMAP
90
90
00
60
20
20
20
20
70
ENDCHAR
STARTCHAR ntilde
ENCODING 150
SWIDTH 582 0
DWIDTH 8 0
BBX 7 9 0 0
BITMAP
24
58
00
D8
64
44
44
44
E6
ENDCHAR
STARTCHAR oacute
ENCODING 151
SWIDTH 546 0
DWIDTH 7 0
BBX 6 9 0 0
BITMAP
10
20
00
38
CC
84
84
CC
70
ENDCHAR
STARTCHAR ograve
ENCODING 152
SWIDTH 546 0
DWIDTH 7 0
BBX 6 9 0 0
BITMAP
20
10
00
38
CC
84
84
CC
70
ENDCHAR
STARTCHAR ocircumflex
ENCODING 153
SWIDTH 546 0
DWIDTH 7 0
BBX 6 9 0 0
BITMAP
20
50
00
38
CC
84
84
CC
70
ENDCHAR
STARTCHAR odieresis
ENCODING 154
SWIDTH 546 0
DWIDTH 7 0
BBX 6 9 0 0
BITMAP
48
48
00
38
CC
84
84
CC
70
ENDCHAR
STARTCHAR otilde
ENCODING 155
SWIDTH 546 0
DWIDTH 7 0
BBX 6 9 0 0
BITMAP
48
B0
00
38
CC
84
84
CC
70
ENDCHAR
STARTCHAR uacute
ENCODING 156
SWIDTH 603 0
DWIDTH 8 0
BBX 7 9 0 0
BITMAP
10
20
00
CC
44
44
44
4C
36
ENDCHAR
STARTCHAR ugrave
ENCODING 157
SWIDTH 603 0
DWIDTH 8 0
BBX 7 9 0 0
BITMAP
20
10
00
CC
44
44
44
4C
36
ENDCHAR
STARTCHAR ucircumflex
ENCODING 158
SWIDTH 603 0
DWIDTH 8 0
BBX 7 9 0 0
BITMAP
10
28
00
CC
44
44
44
4C
36
ENDCHAR
STARTCHAR udieresis
ENCODING 159
SWIDTH 603 0
DWIDTH 8 0
BBX 7 9 0 0
BITMAP
48
48
00
CC
44
44
44
4C
36
ENDCHAR
STARTCHAR dagger
ENCODING 160
SWIDTH 500 0
DWIDTH 6 0
BBX 5 9 0 0
BITMAP
20
20
20
F8
20
20
20
20
20
ENDCHAR
STARTCHAR degree
ENCODING 161
SWIDTH 400 0
DWIDTH 5 0
BBX 4 4 0 5
BITMAP
60
90
90
60
ENDCHAR
STARTCHAR cent
ENCODING 162
SWIDTH 500 0
DWIDTH 6 0
BBX 5 8 0 -1
BITMAP
10
78
A8
A0
A0
C8
70
40
ENDCHAR
STARTCHAR sterling
ENCODING 163
SWIDTH 500 0
DWIDTH 7 0
BBX 6 9 0 0
BITMAP
1C
24
20
20
78
20
20
44
FC
ENDCHAR
STARTCHAR section
ENCODING 164
SWIDTH 500 0
DWIDTH 6 0
BBX 5 12 0 -3
BITMAP
78
C8
80
C0
70
98
C8
70
18
08
98
F0
ENDCHAR
STARTCHAR bullet
ENCODING 165
SWIDTH 606 0
DWIDTH 7 0
BBX 4 5 1 2
BITMAP
60
F0
F0
F0
60
ENDCHAR
STARTCHAR paragraph
ENCODING 166
SWIDTH 628 0
DWIDTH 8 0
BBX 7 12 0 -3
BITMAP
7E
D4
D4
D4
D4
74
14
14
14
14
14
3E
ENDCHAR
STARTCHAR germandbls
ENCODING 167
SWIDTH 556 0
DWIDTH 7 0
BBX 6 9 0 0
BITMAP
38
44
44
CC
50
58
4C
44
D8
ENDCHAR
STARTCHAR registered
ENCODING 168
SWIDTH 747 0
DWIDTH 10 0
BBX 9 9 0 0
BITMAP
3E00
4100
BC80
9480
9880
9480
B680
4100
3E00
ENDCHAR
STARTCHAR copyright
ENCODING 169
SWIDTH 747 0
DWIDTH 10 0
BBX 9 9 0 0
BITMAP
3E00
4100
9C80
A480
A080
A280
9C80
4100
3E00
ENDCHAR
STARTCHAR trademark
ENCODING 170
SWIDTH 979 0
DWIDTH 14 0
BBX 12 5 1 4
BITMAP
FE30
AB60
23E0
22A0
76B0
ENDCHAR
STARTCHAR acute
ENCODING 171
SWIDTH 333 0
DWIDTH 4 0
BBX 2 2 1 7
BITMAP
40
80
ENDCHAR
STARTCHAR dieresis
ENCODING 172
SWIDTH 333 0
DWIDTH 6 0
BBX 4 2 1 7
BITMAP
90
90
ENDCHAR
STARTCHAR notequal
ENCODING 173
SWIDTH 549 0
DWIDTH 7 0
BBX 5 7 1 0
BITMAP
08
10
F8
20
F8
40
80
ENDCHAR
STARTCHAR AE
ENCODING 174
SWIDTH 944 0
DWIDTH 11 0
BBX 10 9 0 0
BITMAP
1FC0
0C40
1400
1480
2780
3C80
4400
4440
E7C0
ENDCHAR
STARTCHAR Oslash
ENCODING 175
SWIDTH 833 0
DWIDTH 10 0
BBX 9 9 0 0
BITMAP
3E80
4100
8380
8480
8880
9080
E080
4100
BE00
ENDCHAR
STARTCHAR infinity
ENCODING 176
SWIDTH 713 0
DWIDTH 9 0
BBX 9 4 0 1
BITMAP
7700
9880
8C80
7700
ENDCHAR
STARTCHAR plusminus
ENCODING 177
SWIDTH 549 0
DWIDTH 7 0
BBX 5 7 1 0
BITMAP
20
20
F8
20
20
00
F8
ENDCHAR
STARTCHAR lessequal
ENCODING 178
SWIDTH 549 0
DWIDTH 7 0
BBX 6 7 0 0
BITMAP
0C
30
C0
30
0C
00
FC
ENDCHAR
STARTCHAR greaterequal
ENCODING 179
SWIDTH 549 0
DWIDTH 7 0
BBX 6 7 0 0
BITMAP
C0
30
0C
30
C0
00
FC
ENDCHAR
STARTCHAR yen
ENCODING 180
SWIDTH 500 0
DWIDTH 8 0
BBX 7 9 0 0
BITMAP
C6
44
28
28
7C
10
7C
10
38
ENDCHAR
STARTCHAR mu
ENCODING 181
SWIDTH 576 0
DWIDTH 8 0
BBX 8 9 0 -3
BITMAP
44
44
44
44
4D
76
40
40
C0
ENDCHAR
STARTCHAR partialdiff
ENCODING 182
SWIDTH 494 0
DWIDTH 6 0
BBX 5 9 0 0
BITMAP
70
88
08
08
68
98
88
88
70
ENDCHAR
STARTCHAR summation
ENCODING 183
SWIDTH 713 0
DWIDTH 9 0
BBX 8 11 0 -2
BITMAP
FE
82
40
20
10
08
10
20
40
81
FF
ENDCHAR
STARTCHAR product
ENCODING 184
SWIDTH 823 0
DWIDTH 10 0
BBX 9 11 0 -2
BITMAP
FF80
4100
4100
4100
4100
4100
4100
4100
4100
4100
E380
ENDCHAR
STARTCHAR pi
ENCODING 185
SWIDTH 549 0
DWIDTH 7 0
BBX 7 6 0 0
BITMAP
7E
A4
24
24
26
64
ENDCHAR
STARTCHAR integral
ENCODING 186
SWIDTH 274 0
DWIDTH 4 0
BBX 5 12 0 -3
BITMAP
18
28
20
20
20
20
20
20
20
20
A0
C0
ENDCHAR
STARTCHAR ordfeminine
ENCODING 187
SWIDTH 333 0
DWIDTH 5 0
BBX 4 7 0 2
BITMAP
60
90
70
90
F0
00
F0
ENDCHAR
STARTCHAR ordmasculine
ENCODING 188
SWIDTH 333 0
DWIDTH 5 0
BBX 4 7 0 2
BITMAP
70
90
90
90
E0
00
F0
ENDCHAR
STARTCHAR Omega
ENCODING 189
SWIDTH 768 0
DWIDTH 10 0
BBX 10 9 0 0
BITMAP
1E00
3300
2100
4080
4080
4080
2100
9240
F3C0
ENDCHAR
STARTCHAR ae
ENCODING 190
SWIDTH 758 0
DWIDTH 9 0
BBX 8 6 0 0
BITMAP
6E
91
7F
90
99
6E
ENDCHAR
STARTCHAR oslash
ENCODING 191
SWIDTH 556 0
DWIDTH 7 0
BBX 6 8 0 -1
BITMAP
04
38
CC
94
A4
CC
70
80
ENDCHAR
STARTCHAR questiondown
ENCODING 192
SWIDTH 444 0
DWIDTH 6 0
BBX 5 9 0 -3
BITMAP
20
20
00
20
20
40
80
88
70
ENDCHAR
STARTCHAR exclamdown
ENCODING 193
SWIDTH 278 0
DWIDTH 3 0
BBX 1 9 0 -3
BITMAP
80
80
00
80
80
80
80
80
80
ENDCHAR
STARTCHAR logicalnot
ENCODING 194
SWIDTH 606 0
DWIDTH 8 0
BBX 6 4 0 1
BITMAP
FC
04
04
04
ENDCHAR
STARTCHAR radical
ENCODING 195
SWIDTH 549 0
DWIDTH 7 0
BBX 6 9 0 0
BITMAP
04
04
04
64
A8
28
28
10
10
ENDCHAR
STARTCHAR florin
ENCODING 196
SWIDTH 500 0
DWIDTH 7 0
BBX 7 12 -1 -3
BITMAP
06
08
08
3C
10
10
10
10
20
20
20
C0
ENDCHAR
STARTCHAR approxequal
ENCODING 197
SWIDTH 549 0
DWIDTH 7 0
BBX 6 5 0 2
BITMAP
64
98
00
64
98
ENDCHAR
STARTCHAR Delta
ENCODING 198
SWIDTH 612 0
DWIDTH 8 0
BBX 7 9 0 0
BITMAP
10
10
28
28
44
44
44
82
FE
ENDCHAR
STARTCHAR guillemotleft
ENCODING 199
SWIDTH 500 0
DWIDTH 7 0
BBX 6 5 0 1
BITMAP
24
48
90
48
24
ENDCHAR
STARTCHAR guillemotright
ENCODING 200
SWIDTH 500 0
DWIDTH 7 0
BBX 6 5 0 1
BITMAP
90
48
24
48
90
ENDCHAR
STARTCHAR ellipsis
ENCODING 201
SWIDTH 1000 0
DWIDTH 9 0
BBX 7 2 1 0
BITMAP
92
92
ENDCHAR
STARTCHAR nbspace
ENCODING 202
SWIDTH 250 0
DWIDTH 3 0
BBX 1 0 0 -4
BITMAP
ENDCHAR
STARTCHAR Agrave
ENCODING 203
SWIDTH 778 0
DWIDTH 10 0
BBX 9 9 0 0
BITMAP
0800
0400
0000
0800
1400
3E00
2200
4100
E380
ENDCHAR
STARTCHAR Atilde
ENCODING 204
SWIDTH 778 0
DWIDTH 10 0
BBX 9 9 0 0
BITMAP
1200
2C00
0000
0800
1400
3E00
2200
4100
E380
ENDCHAR
STARTCHAR Otilde
ENCODING 205
SWIDTH 786 0
DWIDTH 9 0
BBX 8 9 0 0
BITMAP
12
2C
00
3E
43
81
81
C2
7C
ENDCHAR
STARTCHAR OE
ENCODING 206
SWIDTH 998 0
DWIDTH 12 0
BBX 11 9 0 0
BITMAP
3BE0
4620
8200
8240
83C0
8240
8200
C620
7BE0
ENDCHAR
STARTCHAR oe
ENCODING 207
SWIDTH 827 0
DWIDTH 11 0
BBX 10 6 0 0
BITMAP
3B80
CC40
87C0
8400
CE40
7380
ENDCHAR
STARTCHAR endash
ENCODING 208
SWIDTH 500 0
DWIDTH 7 0
BBX 6 1 0 3
BITMAP
FC
ENDCHAR
STARTCHAR emdash
ENCODING 209
SWIDTH 1000 0
DWIDTH 13 0
BBX 12 1 0 3
BITMAP
FFF0
ENDCHAR
STARTCHAR quotedblleft
ENCODING 210
SWIDTH 500 0
DWIDTH 6 0
BBX 5 3 0 6
BITMAP
48
90
90
ENDCHAR
STARTCHAR quotedblright
ENCODING 211
SWIDTH 500 0
DWIDTH 6 0
BBX 5 3 0 6
BITMAP
48
48
90
ENDCHAR
STARTCHAR quoteleft
ENCODING 212
SWIDTH 278 0
DWIDTH 3 0
BBX 2 3 0 6
BITMAP
40
80
80
ENDCHAR
STARTCHAR quoteright
ENCODING 213
SWIDTH 278 0
DWIDTH 3 0
BBX 2 3 0 6
BITMAP
40
40
80
ENDCHAR
STARTCHAR divide
ENCODING 214
SWIDTH 549 0
DWIDTH 7 0
BBX 5 5 1 1
BITMAP
20
00
F8
00
20
ENDCHAR
STARTCHAR lozenge
ENCODING 215
SWIDTH 494 0
DWIDTH 6 0
BBX 6 9 0 0
BITMAP
30
30
48
84
84
48
48
30
30
ENDCHAR
STARTCHAR ydieresis
ENCODING 216
SWIDTH 556 0
DWIDTH 6 0
BBX 7 13 -1 -4
BITMAP
48
48
00
EE
44
24
28
28
18
10
10
20
60
ENDCHAR
STARTCHAR Ydieresis
ENCODING 217
SWIDTH 667 0
DWIDTH 8 0
BBX 7 9 0 0
BITMAP
48
48
00
C6
44
38
10
10
38
ENDCHAR
STARTCHAR fraction
ENCODING 218
SWIDTH 167 0
DWIDTH 2 0
BBX 5 10 -2 -1
BITMAP
08
08
10
10
20
20
40
40
80
80
ENDCHAR
STARTCHAR currency
ENCODING 219
SWIDTH 606 0
DWIDTH 8 0
BBX 6 6 1 3
BITMAP
B4
48
84
84
48
B4
ENDCHAR
STARTCHAR guilsinglleft
ENCODING 220
SWIDTH 331 0
DWIDTH 4 0
BBX 3 5 0 1
BITMAP
20
40
80
40
20
ENDCHAR
STARTCHAR guilsinglright
ENCODING 221
SWIDTH 331 0
DWIDTH 4 0
BBX 3 5 0 1
BITMAP
80
40
20
40
80
ENDCHAR
STARTCHAR fi
ENCODING 222
SWIDTH 605 0
DWIDTH 7 0
BBX 6 9 0 0
BITMAP
38
48
40
F8
48
48
48
48
EC
ENDCHAR
STARTCHAR fl
ENCODING 223
SWIDTH 608 0
DWIDTH 7 0
BBX 6 9 0 0
BITMAP
38
48
48
E8
48
48
48
48
EC
ENDCHAR
STARTCHAR daggerdbl
ENCODING 224
SWIDTH 500 0
DWIDTH 6 0
BBX 5 12 0 -3
BITMAP
20
20
20
F8
20
20
20
20
F8
20
20
20
ENDCHAR
STARTCHAR periodcentered
ENCODING 225
SWIDTH 250 0
DWIDTH 3 0
BBX 2 2 0 3
BITMAP
C0
C0
ENDCHAR
STARTCHAR quotesinglbase
ENCODING 226
SWIDTH 278 0
DWIDTH 3 0
BBX 2 3 0 -1
BITMAP
40
40
80
ENDCHAR
STARTCHAR quotedblbase
ENCODING 227
SWIDTH 500 0
DWIDTH 6 0
BBX 5 3 0 -1
BITMAP
48
48
90
ENDCHAR
STARTCHAR perthousand
ENCODING 228
SWIDTH 1144 0
DWIDTH 16 0
BBX 15 10 0 -1
BITMAP
6600
9A00
9400
9400
698C
0A52
1252
1252
218C
2000
ENDCHAR
STARTCHAR Acircumflex
ENCODING 229
SWIDTH 778 0
DWIDTH 10 0
BBX 9 9 0 0
BITMAP
0800
1400
0000
0800
1400
3E00
2200
4100
E380
ENDCHAR
STARTCHAR Ecircumflex
ENCODING 230
SWIDTH 611 0
DWIDTH 7 0
BBX 6 9 0 0
BITMAP
20
50
00
FC
44
70
40
44
FC
ENDCHAR
STARTCHAR Aacute
ENCODING 231
SWIDTH 778 0
DWIDTH 10 0
BBX 9 9 0 0
BITMAP
0400
0800
0000
0800
1400
3E00
2200
4100
E380
ENDCHAR
STARTCHAR Edieresis
ENCODING 232
SWIDTH 611 0
DWIDTH 7 0
BBX 6 9 0 0
BITMAP
48
48
00
FC
44
70
40
44
FC
ENDCHAR
STARTCHAR Egrave
ENCODING 233
SWIDTH 611 0
DWIDTH 7 0
BBX 6 9 0 0
BITMAP
20
10
00
FC
44
70
40
44
FC
ENDCHAR
STARTCHAR Iacute
ENCODING 234
SWIDTH 337 0
DWIDTH 4 0
BBX 3 9 0 0
BITMAP
20
40
00
E0
40
40
40
40
E0
ENDCHAR
STARTCHAR Icircumflex
ENCODING 235
SWIDTH 337 0
DWIDTH 4 0
BBX 4 9 0 0
BITMAP
90
90
00
E0
40
40
40
40
E0
ENDCHAR
STARTCHAR Idieresis
ENCODING 236
SWIDTH 337 0
DWIDTH 4 0
BBX 4 9 0 0
BITMAP
90
90
00
E0
40
40
40
40
E0
ENDCHAR
STARTCHAR Igrave
ENCODING 237
SWIDTH 337 0
DWIDTH 4 0
BBX 3 9 0 0
BITMAP
80
40
00
E0
40
40
40
40
E0
ENDCHAR
STARTCHAR Oacute
ENCODING 238
SWIDTH 786 0
DWIDTH 9 0
BBX 8 9 0 0
BITMAP
08
10
00
3E
43
81
81
C2
7C
ENDCHAR
STARTCHAR Ocircumflex
ENCODING 239
SWIDTH 786 0
DWIDTH 9 0
BBX 8 9 0 0
BITMAP
08
14
00
3E
43
81
81
C2
7C
ENDCHAR
STARTCHAR apple
ENCODING 240
SWIDTH 790 0
DWIDTH 10 0
BBX 8 9 1 0
BITMAP
0C
08
77
FF
FC
FC
FF
7F
36
ENDCHAR
STARTCHAR Ograve
ENCODING 241
SWIDTH 786 0
DWIDTH 9 0
BBX 8 9 0 0
BITMAP
10
08
00
3E
43
81
81
C2
7C
ENDCHAR
STARTCHAR Uacute
ENCODING 242
SWIDTH 778 0
DWIDTH 10 0
BBX 9 9 0 0
BITMAP
0800
1000
0000
E380
4100
4100
4100
6200
3E00
ENDCHAR
STARTCHAR Ucircumflex
ENCODING 243
SWIDTH 778 0
DWIDTH 10 0
BBX 9 9 0 0
BITMAP
0800
1400
0000
E380
4100
4100
4100
6200
3E00
ENDCHAR
STARTCHAR Ugrave
ENCODING 244
SWIDTH 778 0
DWIDTH 10 0
BBX 9 9 0 0
BITMAP
1000
0800
0000
E380
4100
4100
4100
6200
3E00
ENDCHAR
STARTCHAR dotlessi
ENCODING 245
SWIDTH 287 0
DWIDTH 4 0
BBX 3 6 0 0
BITMAP
C0
40
40
40
40
E0
ENDCHAR
STARTCHAR circumflex
ENCODING 246
SWIDTH 333 0
DWIDTH 4 0
BBX 3 2 0 7
BITMAP
40
A0
ENDCHAR
STARTCHAR tilde
ENCODING 247
SWIDTH 333 0
DWIDTH 6 0
BBX 5 2 0 7
BITMAP
48
B0
ENDCHAR
STARTCHAR macron
ENCODING 248
SWIDTH 333 0
DWIDTH 5 0
BBX 4 1 0 7
BITMAP
F0
ENDCHAR
STARTCHAR breve
ENCODING 249
SWIDTH 333 0
DWIDTH 5 0
BBX 4 2 0 7
BITMAP
90
60
ENDCHAR
STARTCHAR dotaccent
ENCODING 250
SWIDTH 250 0
DWIDTH 3 0
BBX 1 2 1 7
BITMAP
80
80
ENDCHAR
STARTCHAR ring
ENCODING 251
SWIDTH 333 0
DWIDTH 7 0
BBX 4 3 1 7
BITMAP
60
90
60
ENDCHAR
STARTCHAR cedilla
ENCODING 252
SWIDTH 333 0
DWIDTH 4 0
BBX 3 3 0 -3
BITMAP
40
20
C0
ENDCHAR
STARTCHAR hungarumlaut
ENCODING 253
SWIDTH 380 0
DWIDTH 6 0
BBX 5 2 0 7
BITMAP
48
90
ENDCHAR
STARTCHAR ogonek
ENCODING 254
SWIDTH 313 0
DWIDTH 4 0
BBX 2 3 1 -3
BITMAP
40
80
C0
ENDCHAR
STARTCHAR caron
ENCODING 255
SWIDTH 333 0
DWIDTH 4 0
BBX 3 2 0 7
BITMAP
A0
40
ENDCHAR
ENDFONT
